<svg width="47" height="52" viewBox="0 0 47 52" fill="none" xmlns="http://www.w3.org/2000/svg">
<path d="M15.6667 23.4V28.6H10.4444V23.4H15.6667ZM26.1111 23.4V28.6H20.8889V23.4H26.1111ZM36.5556 23.4V28.6H31.3333V23.4H36.5556ZM41.7778 5.2C43.1628 5.2 44.4911 5.74786 45.4704 6.72304C46.4498 7.69823 47 9.02087 47 10.4V46.8C47 48.1791 46.4498 49.5018 45.4704 50.477C44.4911 51.4521 43.1628 52 41.7778 52H5.22222C2.32389 52 0 49.66 0 46.8V10.4C0 9.02087 0.550197 7.69823 1.52955 6.72304C2.50891 5.74786 3.8372 5.2 5.22222 5.2H7.83333V0H13.0556V5.2H33.9444V0H39.1667V5.2H41.7778ZM41.7778 46.8V18.2H5.22222V46.8H41.7778ZM15.6667 33.8V39H10.4444V33.8H15.6667ZM26.1111 33.8V39H20.8889V33.8H26.1111ZM36.5556 33.8V39H31.3333V33.8H36.5556Z" fill="#0466B1"/>
</svg>
