<svg width="96" height="78" viewBox="0 0 96 78" fill="none" xmlns="http://www.w3.org/2000/svg">
<path d="M53.5 78L47.3375 72.3891C25.45 52.5384 11 39.4038 11 23.3787C11 10.2441 21.285 0 34.375 0C41.77 0 48.8675 3.44305 53.5 8.84142C58.1325 3.44305 65.23 0 72.625 0C85.715 0 96 10.2441 96 23.3787C96 39.4038 81.55 52.5384 59.6625 72.3891L53.5 78Z" fill="#87CBFF"/>
<path d="M77.6 54.1L76 59.5L74.4 54.1L69 52.5L74.4 50.9L76 45.5L77.6 50.9L83 52.5L77.6 54.1ZM84 58.7L88 56.5L85.8 60.5L88 64.5L84 62.3L80 64.5L82.2 60.5L80 56.5L84 58.7ZM77 60.5L75.3 63.5L77 66.5L74 64.8L71 66.5L72.7 63.5L71 60.5L74 62.2L77 60.5Z" fill="#CFEAFF"/>
<path d="M13.5789 20.0143L11.0526 28.5L8.52632 20.0143L0 17.5L8.52632 14.9857L11.0526 6.5L13.5789 14.9857L22.1053 17.5L13.5789 20.0143ZM23.6842 27.2429L30 23.7857L26.5263 30.0714L30 36.3571L23.6842 32.9L17.3684 36.3571L20.8421 30.0714L17.3684 23.7857L23.6842 27.2429ZM12.6316 30.0714L9.94737 34.7857L12.6316 39.5L7.89474 36.8286L3.15789 39.5L5.84211 34.7857L3.15789 30.0714L7.89474 32.7429L12.6316 30.0714Z" fill="#CFEAFF"/>
</svg>
