<svg width="117" height="99" viewBox="0 0 117 99" fill="none" xmlns="http://www.w3.org/2000/svg">
<path d="M25.9722 49.5833L37.7778 63.75L54.3056 42.5L75.5556 70.8333H9.44444M85 75.5556V9.44444C85 4.20278 80.75 0 75.5556 0H9.44444C6.93962 0 4.53739 0.995036 2.76621 2.76621C0.995036 4.53739 0 6.93962 0 9.44444V75.5556C0 78.0604 0.995036 80.4626 2.76621 82.2338C4.53739 84.005 6.93962 85 9.44444 85H75.5556C78.0604 85 80.4626 84.005 82.2338 82.2338C84.005 80.4626 85 78.0604 85 75.5556Z" fill="#87CBFF"/>
<path d="M100.956 69.95L96.204 66.0384L99.6529 61.8487L104.405 65.7602M94.058 78.3295L89.3063 74.4179L92.7551 70.2282L97.5069 74.1397M87.1603 86.709L82.4085 82.7974L85.8574 78.6077L90.6091 82.5192M77.1969 50.3923L72.4452 46.4808L75.894 42.291L80.6458 46.2026M70.2992 58.7718L65.5474 54.8603L68.9963 50.6705L73.748 54.5821M63.4014 67.1513L58.6496 63.2398L62.0985 59.05L66.8503 62.9616M111.302 57.3807L107.854 61.5705L103.102 57.6589L106.551 53.4692L87.5436 37.8231L84.0947 42.0128L79.3429 38.1013L82.7918 33.9115L78.04 30L47.0001 67.7077L51.7518 71.6193L55.2007 67.4295L59.9525 71.3411L56.5036 75.5308L75.5107 91.1769L78.9596 86.9872L83.7114 90.8987L80.2625 95.0885L85.0143 99L116.054 61.2923L111.302 57.3807Z" fill="#003C69"/>
</svg>
