<svg width="93" height="85" viewBox="0 0 93 85" fill="none" xmlns="http://www.w3.org/2000/svg">
<path d="M76.0909 0L54.9545 19.125V65.875L76.0909 46.75V0ZM23.25 12.75C15.0068 12.75 6.12955 14.45 0 19.125V81.43C0 82.4925 1.05682 83.555 2.11364 83.555C2.53636 83.555 2.74773 83.2575 3.17045 83.2575C8.87727 80.495 17.1205 78.625 23.25 78.625C31.4932 78.625 40.3705 80.325 46.5 85C52.2068 81.3875 62.5636 78.625 69.75 78.625C76.725 78.625 83.9114 79.9425 89.8295 83.13C90.2523 83.3425 90.4636 83.2575 90.8864 83.2575C91.9432 83.2575 93 82.195 93 81.1325V19.125C90.4636 17.2125 87.7159 15.9375 84.5454 14.875V72.25C79.8954 70.7625 74.8227 70.125 69.75 70.125C62.5636 70.125 52.2068 72.8875 46.5 76.5V19.125C40.3705 14.45 31.4932 12.75 23.25 12.75Z" fill="#87CBFF"/>
</svg>
