<svg width="41" height="41" viewBox="0 0 41 41" fill="none" xmlns="http://www.w3.org/2000/svg">
<path d="M10.5299 13.1837L13.3996 10.3757L24.6319 21.8546L24.7398 11.9184L28.771 11.9622L28.5885 28.7685L11.7822 28.586L11.826 24.5547L21.7621 24.6626L10.5299 13.1837ZM34.4292 34.7375C32.5449 36.5813 30.316 38.0359 27.8695 39.0183C25.4231 40.0006 22.8071 40.4915 20.1709 40.4629C14.847 40.4051 9.76403 38.2347 6.04031 34.4292C2.31659 30.6237 0.257105 25.4948 0.314925 20.1709C0.372745 14.8469 2.54313 9.76398 6.34862 6.04026C8.23291 4.19646 10.4619 2.74185 12.9084 1.75949C15.3548 0.777126 17.9708 0.286248 20.6069 0.314876C23.2431 0.343505 25.8478 0.891082 28.2723 1.92635C30.6969 2.96161 32.8938 4.46429 34.7376 6.34857C38.4613 10.1541 40.5208 15.2829 40.4629 20.6069C40.4051 25.9308 38.2347 31.0138 34.4292 34.7375ZM31.6212 31.8678C34.6656 28.8888 36.4019 24.8225 36.4481 20.5633C36.4944 16.3041 34.8468 12.201 31.8678 9.15663C28.8888 6.11224 24.8225 4.37593 20.5633 4.32968C16.3042 4.28342 12.2011 5.93101 9.15668 8.90998C6.11229 11.889 4.37598 15.9553 4.32973 20.2145C4.28347 24.4736 5.93106 28.5767 8.91003 31.6211C11.889 34.6655 15.9554 36.4018 20.2145 36.4481C24.4737 36.4943 28.5768 34.8468 31.6212 31.8678Z" fill="white"/>
</svg>
