<svg width="172" height="95" viewBox="0 0 172 95" fill="none" xmlns="http://www.w3.org/2000/svg">
<path d="M168.037 56.4408C165.707 56.6775 162.594 56.5133 160.231 56.2545C159.998 56.2293 159.871 56.1694 159.793 56.0967C159.631 55.9383 159.693 55.7196 159.342 55.6687C158.339 55.5242 157.41 55.7516 156.415 55.5762C156.089 55.516 156.479 54.8358 156.137 54.788C154.246 54.5314 152.471 54.7415 150.556 54.642C143.304 54.265 136.129 54.1593 128.905 54.1468C126.748 54.1452 124.616 54.1558 122.452 54.1854C119.511 54.2293 115.814 53.8606 112.671 54.1397C112.514 54.1543 112.355 54.1707 112.195 54.1892C111.809 54.2342 112.059 54.8155 111.988 54.8666C110.878 55.6484 111.222 54.4458 110.469 54.3122C107.516 53.783 104.254 53.8242 101.444 54.1357C100.249 54.2699 101.484 55.4047 100.259 54.7837C100.173 54.7418 100.459 54.1069 100.128 54.0499C99.3775 53.9221 97.968 54.0765 97.3888 54.0446C96.2733 53.9798 96.0903 53.9917 95.0369 54.0173C93.5992 54.047 91.878 53.7908 90.3417 53.985C90.015 54.0283 90.4707 54.6549 89.9521 54.7819C89.4273 54.9088 88.0433 54.9034 87.569 54.7698C87.1004 54.6356 87.2762 54.1243 87.1898 54.0118C86.4745 53.0612 84.9201 54.4759 84.7184 54.5184C84.5317 54.5545 84.3492 54.5872 84.1707 54.6168C80.687 55.1878 77.6052 54.6737 74.2843 54.9387C72.0136 55.1104 69.6664 55.561 67.1586 55.6698C66.8279 55.684 66.4704 55.7035 66.0914 55.7181C62.9746 55.8447 60.3343 55.5446 57.3479 55.6497C57.0332 55.6596 57.4111 56.4092 57.0304 56.4227C56.3159 56.4472 55.6351 56.4649 54.9204 56.4755C51.5532 56.5248 48.2027 56.411 44.8456 56.0029C44.4374 55.9528 44.9593 55.2881 44.5536 55.1984C42.0686 54.6639 38.1371 53.3686 36.6726 56.2584C34.9913 56.1513 32.9506 56.0419 31.4447 55.4661C30.4721 55.0956 31.4133 54.3701 30.2227 54.6828C29.9537 54.7525 30.3059 55.3832 29.9032 55.4399C28.2084 55.6782 26.3593 55.4812 24.6818 55.8178C24.3414 55.8877 24.4385 56.4536 24.3431 56.5562C23.5316 57.387 22.1877 56.0312 21.8829 55.9345C21.3937 55.7754 20.9158 55.6666 20.4821 55.5934C18.8893 55.3351 17.5528 55.5276 15.9147 55.5336C15.4237 55.5347 16.0142 56.2889 15.5398 56.3172C14.795 56.3578 14.0406 56.3843 13.2126 56.371C12.7804 56.3595 12.3933 56.3575 11.7021 56.2687C11.5202 56.2421 11.3222 56.2149 10.9828 56.1279C10.653 55.9867 10.1996 56.0901 9.01328 55.0003C8.396 54.4293 7.90101 53.1511 7.95199 52.3585C7.96926 51.5296 8.14838 51.1469 8.25357 50.8649C8.48162 50.34 8.60289 50.2 8.69351 50.0552C9.57729 48.8127 10.3017 48.2065 11.0918 47.5272C11.5333 47.1661 11.6514 47.9896 11.8876 47.8393C12.9038 47.2031 12.2118 46.1661 13.1824 45.5723C13.3865 45.4467 13.6828 45.9339 13.7559 45.9474C14.8936 46.1683 14.3554 44.8052 14.4579 44.665C15.3252 43.4408 16.5269 43.1192 17.6369 42.5381C18.1319 42.2821 18.6201 41.9634 19.0433 41.4948C19.2071 41.3118 18.3257 41.1636 18.8178 40.6788C22.0652 37.4783 25.8059 34.459 29.5664 31.9476C30.1499 31.5573 30.1184 32.2816 30.1937 32.3024C31.4001 32.6023 30.8605 31.2709 30.9994 31.0836C32.1193 29.6319 34.1352 29.4105 34.0131 27.3869C34.7448 26.8526 35.4643 26.3039 36.1754 25.7479C41.4938 21.6113 46.0915 17.056 51.7271 13.4348C51.8068 13.3826 52.145 13.9854 52.3024 13.8787C54.2178 12.5794 53.1878 12.1184 53.3873 10.1598C53.4354 9.7674 54.5832 9.87995 55.1774 9.93544C55.3458 9.95129 55.4652 9.96723 55.499 9.96921C56.0608 10.0043 56.4693 10.996 56.617 10.9653C57.8018 10.7023 55.4112 8.42694 56.426 7.46234C56.4612 7.43645 56.7474 8.00184 56.8733 7.96544C57.2651 7.85446 57.3542 7.43625 57.7376 7.35191C58.4556 7.20366 59.5923 7.80946 59.8353 7.09252C59.8905 6.93069 59.8808 6.77154 59.7809 6.62672C59.7562 6.60625 59.6227 6.5639 59.4371 6.51823C59.3441 6.49605 59.2378 6.47339 59.1229 6.46313C59.0086 6.45714 58.8834 6.43672 58.7481 6.57502C58.6398 6.71035 58.3995 6.97749 58.6685 7.76198C58.8524 8.24974 59.4455 8.78086 59.9599 8.9406C60.0867 8.98616 60.2063 9.01731 60.315 9.03905C60.4147 9.05932 60.4518 9.07099 60.5156 9.08277C60.6321 9.10531 60.7353 9.11789 60.8246 9.12606C61.2004 9.14629 61.2626 9.16277 61.3129 9.19376C61.3488 9.2245 61.3193 9.25911 61.2343 9.29587C60.9995 9.35074 59.283 10.65 58.7458 10.9246C58.1972 11.196 58.1534 10.4677 58.103 10.4736C56.3145 10.8585 56.6073 10.2126 55.2153 9.80917C53.8332 9.40719 55.7557 11.4612 55.6898 11.9148C55.6259 12.3653 54.2622 12.6196 53.8827 12.6327C53.503 12.6455 53.5562 12.11 53.2656 12.1784C51.3617 12.6308 53.5356 13.7503 53.3657 14.4604C52.9581 16.1462 50.8171 15.204 49.7061 15.8349C49.4056 16.0056 49.9192 16.2007 49.7097 16.4255C48.8719 17.3128 47.9064 17.2535 47.1889 18.5712C47.0759 18.7833 46.9594 20.4583 45.8161 20.1741C45.6548 20.1304 45.5706 19.544 45.0917 19.7615C44.3653 20.0951 43.1951 20.8184 42.6006 21.4423C42.1667 21.8995 43.2399 22.1972 42.433 22.4285C42.0801 22.5238 42.3261 21.7561 41.6958 21.9616C41.4952 22.0296 41.2297 22.1609 40.9543 22.3067C40.3004 22.6548 39.5305 23.1545 39.1712 23.3934C38.6555 23.7367 39.2865 24.106 39.2671 24.1696C39.1462 24.5403 38.3066 25.4315 38.2138 25.4881C33.7985 28.3302 29.0551 29.9253 24.89 32.8164C24.8676 32.8322 24.8453 32.8481 24.823 32.864C24.4979 33.0958 25.0819 33.5388 25.036 33.5801C24.0412 34.5339 23.9884 32.4263 22.8517 32.4244C23.7127 33.5213 23.1006 33.6038 22.4004 34.2592C22.0667 34.5759 22.5748 34.8798 22.5713 34.9484C22.4907 35.9916 21.5179 35.4002 21.2889 35.3003C20.4585 34.9251 20.6306 35.9704 20.0703 35.7354C19.5039 35.5111 19.5904 34.4519 18.8618 35.0381C18.9699 35.5864 20.3038 36.1809 19.8986 36.7736C18.4026 38.9437 14.2086 41.5911 12.6418 43.0574C11.7697 43.8611 11.2696 44.3856 10.8096 44.8403C10.4691 45.1771 10.1757 45.4649 9.79164 45.8112C8.28743 47.2743 9.52331 47.2439 9.34769 48.4396C9.27254 49.6249 7.33102 48.2208 6.78709 48.1829C6.23857 48.1788 6.64546 48.5772 6.2999 48.7186C5.95168 48.8729 5.80785 48.2178 5.50904 48.7789C5.17856 49.3708 5.74029 51.2039 6.26122 51.4521C7.32661 52.0238 8.55884 51.5147 8.0125 52.8325C7.98145 52.912 7.38205 52.5956 7.29468 52.906C7.03175 53.8831 6.90151 54.9284 6.8166 55.9899C6.63831 57.1226 7.68261 58.4344 8.77731 59.5466C9.03048 59.8064 8.3612 60.1743 8.51126 60.3358C10.1368 61.9805 10.1201 60.5352 11.7926 60.0396C10.678 61.3846 10.7327 62.6512 12.2027 63.4946C13.0772 64.001 13.2977 63.2586 14.1347 63.1321C14.3897 63.0944 14.7377 63.9087 15.0329 63.6768C15.9859 62.9623 16.0997 61.5251 17.28 62.7734C17.3179 62.8166 17.357 62.8632 17.3974 62.9136C17.4466 62.9778 16.8824 63.3575 17.0788 63.5415C18.3391 64.7314 19.2054 63.8629 20.7969 64.8128C22.043 65.5576 23.7002 67.6408 24.9766 68.6598C24.3247 69.5719 24.5619 70.1298 25.1238 70.2881C25.5525 70.4159 26.1522 70.369 26.73 70.1066C27.5799 70.8553 28.5001 71.5687 29.1584 72.3901C29.3857 72.6735 28.8385 72.9406 28.8323 73.016C28.7205 74.1851 29.929 73.5141 30.1342 73.6259C32.3325 74.8929 33.231 76.9571 35.6806 77.7008C35.7705 77.7286 36.7139 76.7596 36.591 77.9216C36.5825 78.0014 35.5886 77.993 36.4263 78.7217C36.9041 79.1361 37.503 79.9185 38.235 80.5916C38.7984 81.1087 39.4199 81.5491 40.1143 81.7235C40.512 81.8289 41.8899 81.475 42.0206 82.6059C42.0359 82.7578 41.7261 83.0134 41.7215 83.2719C41.7236 84.1064 42.6907 83.1177 42.5145 84.3915C42.3243 85.6528 42.8769 87.0651 44.6791 87.1817C44.7353 87.1869 45.5961 86.4374 46.0138 86.6824C46.687 87.0822 47.5885 87.7731 48.3582 88.0809C48.7282 88.2291 48.7445 87.5107 48.8127 87.5255C49.7928 87.773 50.6492 88.0158 51.5349 88.4917C52.4269 88.965 53.18 89.7063 53.9787 89.8258C54.1797 89.8362 54.329 89.8107 54.4079 89.724C54.4994 89.6323 54.5185 89.3876 54.469 89.1445C54.3901 88.6041 52.8706 87.9075 52.8524 86.6963C52.816 85.3494 56.1262 84.2084 53.8597 82.6468C53.0326 82.0806 49.4458 83.471 49.4264 81.417C49.424 81.2502 49.4249 81.0544 49.4445 80.8387C46.7249 78.8333 44.6696 76.7941 41.8916 75.2916C41.52 75.0991 41.1359 74.9254 40.732 74.7707C40.5771 74.7106 39.5149 75.4116 39.2066 75.1938C38.7498 74.8683 38.7811 74.2403 38.4655 73.9938C37.1389 72.9421 35.5907 72.4917 34.2745 71.5351C33.7753 71.1733 34.2629 70.821 33.671 70.3897C33.0768 69.9565 32.2559 70.3001 31.6306 69.445C31.16 68.7968 31.3932 67.1214 30.6785 66.4139C29.8 67.6241 29.2533 67.2118 28.029 66.8361C27.793 66.7641 27.7002 67.3348 27.573 67.3226C27.0457 67.2804 26.9553 66.6886 26.4357 66.678C26.3102 66.675 26.0105 67.0885 25.8908 67.1092C24.8577 67.2988 24.5545 65.6645 24.5048 65.3809C24.5032 65.3722 24.5016 65.3636 24.4999 65.3551C24.3001 64.3068 23.6195 64.6103 23.3172 64.0092C23.0203 63.4067 23.9609 63.6545 23.5142 63.0844C22.5946 61.9094 21.1139 60.8 20.0063 59.8243C19.563 59.439 19.4262 60.2176 19.3525 60.1746C18.3143 59.5159 17.835 58.151 16.4506 58.7738C17.6698 56.2573 16.5071 57.4999 15.5264 57.4773L15.568 57.5041C15.2766 57.5365 14.9681 57.4469 14.7068 57.1033C14.6109 56.9775 15.3548 55.4892 15.8948 55.5294C16.1035 55.5439 16.2855 55.6708 16.4793 55.8183C16.5205 55.8427 16.6413 55.9159 16.6785 55.9461C17.0005 56.2631 17.3206 56.6512 17.8279 56.7639C18.0214 56.8035 19.8078 56.2687 19.9749 56.2885C21.2811 56.431 19.7736 58.4091 19.7302 58.5506C19.2591 60.0837 21.2661 59.5881 21.5788 59.6969C23.0186 60.2095 23.7434 61.2351 24.9177 61.6548C25.6848 61.9299 26.7128 60.6674 27.1602 61.0583C27.2554 61.1411 27.3424 61.2282 27.4226 61.3185C28.6308 62.6622 28.1675 64.6235 30.7127 64.1582C31.2946 64.0518 31.9651 62.3577 32.3921 64.3499C32.4184 64.4754 32.6062 66.1542 33.5928 65.8461C33.7162 65.8066 34.0039 65.3763 34.116 65.3997C34.8616 65.5648 35.0196 66.1684 35.7728 66.4341C36.5251 66.6992 37.46 66.9652 38.1007 67.5957C38.4896 67.9767 38.5315 69.1557 38.6198 69.4949C38.8552 70.46 40.1127 69.9452 40.0436 70.8813C39.9758 71.8232 38.5471 72.3972 39.2599 73.4942C40.0266 72.3882 40.8603 71.2832 41.6526 70.1847C42.4794 70.74 43.2671 71.3335 44.0839 71.9691C45.3637 72.9744 46.6346 73.9938 48.0671 74.9445C48.3551 75.1351 48.4776 74.3382 48.8011 74.5309C49.4808 74.9397 50.0455 75.4715 50.6514 76.0613C51.2798 76.7002 51.8479 77.1537 53.0327 78.4341C53.1066 78.5193 53.1818 78.6086 53.2583 78.7032C53.8482 79.1923 55.2226 79.7208 56.1275 80.5343C55.4264 82.1163 57.0483 83.2347 57.9086 84.786C58.2086 85.3374 57.8399 85.5264 57.9689 86.0152C58.2192 86.9651 58.5467 87.2929 58.881 87.3033C59.2127 87.3288 59.5294 87.0197 59.7863 87.4641C60.0603 87.9825 60.2834 88.6613 60.2764 89.6378C60.279 90.619 59.9054 92.0602 58.9716 93.1595C56.9261 95.3697 55.2929 94.9875 54.5128 94.833C52.3541 94.3155 51.8712 93.0445 50.8994 92.6766C50.7976 92.6331 49.5273 93.2865 49.1838 93.6091C49.1286 93.6754 49.0883 93.7195 49.0727 93.7307C48.7482 93.9544 48.7263 93.7973 48.8256 93.5761C48.9109 93.3508 49.0848 93.0521 48.8685 92.9072C47.9858 92.3514 47.1551 91.6541 45.5858 91.4493C45.129 91.3966 43.6824 91.8168 43.3228 90.7077C43.2761 90.5631 43.5939 90.1193 43.532 90.0483C42.4329 88.8125 41.5396 90.2445 40.4579 90.2529C39.3711 90.2537 38.8827 88.5047 38.8554 88.0723C38.756 86.9399 39.524 88.0766 39.5984 88.0201C40.545 87.4219 39.6361 87.0266 39.0914 86.5387C39.9533 85.1043 39.0863 84.6118 38.5187 86.0334C38.458 86.1902 39.0109 86.39 39.0914 86.5387C37.6244 87.515 36.5409 87.0005 36.4692 85.0345C36.4298 84.2059 37.1896 83.8627 36.2334 83.2153C36.1164 83.1358 35.9744 83.0522 35.8037 82.9633C35.0997 82.5949 34.6316 83.6876 33.8884 83.5058C32.1776 83.0784 31.2341 80.9262 29.8768 79.9995C29.3843 79.6637 29.4207 80.5194 29.0665 80.3029C28.1253 79.7286 27.7183 78.7518 26.7461 78.2239C26.658 78.1771 26.4024 78.8294 26.1465 78.6168C24.5206 77.2902 23.0853 75.566 22.1022 74.7593C21.8047 74.5393 21.5005 74.3197 21.1859 74.1016C20.1159 73.3631 18.0366 72.3402 17.0124 71.5218C15.8216 70.5757 14.674 69.1977 13.5438 68.1383C13.1134 67.7033 12.5834 67.3138 12.0391 67.0808C10.9507 66.6153 10.8348 67.3162 10.1612 67.4475C8.86352 67.7175 7.88442 65.3457 7.77491 64.9825C7.77781 64.9786 8.87603 65.4543 8.50707 64.8396C8.55768 64.0476 7.79026 64.9881 7.77491 64.9825C7.71362 64.787 5.65759 63.244 5.09699 62.884C4.80511 62.729 4.53922 63.3217 4.38977 63.2255C2.89151 62.2194 0.389367 60.1257 0.167037 56.0914C0.0454524 54.3661 0.0826178 52.4794 0.566714 50.3792C0.589984 50.3129 1.26406 50.5229 1.30989 50.3699C1.98404 48.2629 1.66618 46.5227 2.19159 44.4092C2.74077 42.3106 3.96562 41.1082 5.55296 41.1195C5.72612 40.874 5.94075 40.6399 6.18856 40.4144C6.92062 39.768 7.95749 39.245 8.62843 38.9227C9.49172 38.5061 8.60993 37.4669 8.65078 37.3873C9.81467 35.0166 11.4107 34.5463 13.4987 32.8613C14.4875 32.0572 16.3904 30.2591 17.5063 29.2998C18.3731 28.5364 19.1276 28.42 19.8751 27.6999C19.9767 27.603 19.5342 27.1666 19.5573 27.1243C20.1351 25.9032 20.4557 27.4528 20.7914 27.5543C21.1896 27.6795 21.5282 27.7858 21.8388 27.831C22.4994 27.9073 22.9938 27.765 23.6139 27.0408C23.8222 26.7957 23.4971 24.5063 23.9089 24.1141C24.4495 23.6056 24.6058 24.403 25.1592 23.8545C25.205 23.8093 24.9585 23.4075 25.3631 23.1882C27.2666 22.1473 29.4278 21.1525 31.3182 19.9321C31.577 19.7672 30.8489 19.3376 31.2178 19.0877C32.9437 17.9194 34.8958 16.735 36.802 15.9484C36.8482 15.9295 36.89 15.9183 36.9281 15.9134C37.2042 15.9155 37.2888 16.383 37.426 16.462C38.3909 16.965 38.3355 15.3385 38.4188 15.2468C40.7799 12.7571 43.7615 11.9311 46.3415 9.1003C46.4811 8.94357 46.8007 6.80004 48.1484 7.32571C48.2428 7.35688 49.5938 7.91723 49.5396 6.83116C49.5354 6.76396 48.7735 6.52824 49.4203 6.09299C50.0721 5.65384 50.7716 4.5239 52.0972 4.40576C52.5141 4.36991 53.9422 4.87429 54.1921 3.40606C54.1859 3.31979 54.2359 0.391054 55.9761 1.19443C56.11 1.26604 56.3534 1.6872 56.7351 1.86203C56.9421 1.94118 57.1756 1.96068 57.5069 1.83437C57.6801 1.76957 57.9668 1.61489 58.4201 1.41067C58.4799 1.38429 58.5382 1.35865 58.6132 1.32827C58.7197 1.28763 58.838 1.24551 58.9737 1.20295C59.2462 1.11899 59.5828 1.02704 60.0735 0.971117C60.3195 0.944244 60.6055 0.92745 60.9489 0.942293C61.5136 0.975393 62.2534 1.09172 63.0984 1.48942C63.937 1.87543 64.8431 2.60914 65.4275 3.49166C66.01 4.38752 66.1674 4.93716 66.322 5.57367C66.5103 6.49068 66.4751 6.89134 66.494 7.15407C66.5025 7.40815 66.5168 7.49878 66.5452 7.52979C66.601 7.59117 66.6981 7.36737 66.7692 7.37212C66.8048 7.37528 66.8366 7.44644 66.8484 7.63285C66.8542 7.72528 66.8543 7.8451 66.8454 7.9886C66.8335 8.14405 66.8411 8.19116 66.8303 8.31435C66.8106 8.74006 66.6137 9.49546 66.4345 9.9767C66.3233 10.3048 66.2035 10.5829 66.0729 10.8463C64.6902 13.2479 63.662 13.5219 63.3663 14.7874C63.3053 15.0294 63.4895 16.4313 62.4313 16.2412C62.2637 16.2132 62.0129 15.6729 61.7245 15.8624C61.5627 15.9682 61.408 16.081 61.2556 16.2021C60.0612 17.1618 59.0923 18.4431 57.7344 19.2563C57.192 19.581 56.797 18.7011 56.1575 18.9686C55.5235 19.2316 54.413 19.9471 54.1952 20.7136C53.9808 21.4772 55.5117 22.0423 54.8334 22.8223C51.8802 26.2237 47.8922 28.4662 44.5251 31.1143C44.0251 31.5083 44.758 31.5723 44.0484 32.1791C43.6124 32.5524 43.1415 32.9712 42.6285 33.4303C40.0931 35.7015 36.7508 38.8278 34.262 39.7693C31.8717 40.6756 33.7088 38.1862 32.0883 39.119C31.3064 39.572 31.6962 41.4735 31.5713 41.6536C30.3592 43.4326 28.7818 43.8273 27.536 45.2432C27.2805 45.5346 28.0168 45.7948 27.7954 46.0363C27.0398 46.8691 25.9613 47.4276 25.2132 48.1822C24.8805 48.5206 25.2962 48.8486 24.9468 49.1129C24.6973 49.3031 24.4354 49.4891 24.1818 49.6465C23.5921 50.017 22.9719 50.3071 22.2333 50.5361C22.1357 50.5667 22.1415 49.6684 21.569 50.1745C20.6478 50.9927 19.205 51.7134 18.6262 53.0256C18.4624 53.4121 19.3038 54.2522 18.1635 54.2697C17.9384 54.2639 16.9712 53.1811 17.3413 54.6414C17.3652 54.711 17.4098 54.9697 17.4714 55.2411C17.5377 55.5024 17.6004 55.8245 17.7832 55.7802C17.8122 55.77 17.8717 55.7139 17.9968 55.5115C18.1232 55.2744 18.3522 54.9764 18.6281 53.8941C18.7507 53.3651 18.8853 52.5258 18.7507 51.4548C18.6284 50.3533 18.1043 49.0516 17.4441 48.1812C16.0616 46.4176 15.0576 46.1487 14.5238 45.8884C13.4632 45.4995 13.329 45.5914 13.1271 45.5994C12.9779 45.6344 12.9354 45.7112 12.9179 45.8131C12.8233 46.0942 13.2509 47.2884 13.7392 47.1037C13.8027 47.0745 13.5509 46.4325 13.9386 46.3708C15.3482 46.1596 17.0139 46.1982 18.5858 45.9801C19.0157 45.9202 18.373 45.2638 19.0032 45.196C19.4396 45.1491 19.893 45.1234 20.3823 45.1142C21.8055 45.087 23.3517 45.2106 24.6265 45.359C25.2579 45.4332 24.8249 45.9855 24.871 46.0451C25.6045 47.0141 26.0398 45.6982 26.2768 45.6204C27.7843 45.1541 28.9409 45.7662 30.328 45.5973C30.7134 45.5524 30.4377 44.9272 30.514 44.871C31.3008 44.3223 30.7169 45.4494 31.2186 45.5714C32.6246 45.9171 34.1898 45.8614 35.6091 45.7765C36.1302 45.7445 35.5418 45.0202 36.0098 44.9998C38.7796 44.8654 41.6529 44.9256 44.355 45.3153C44.8609 45.39 44.5448 45.9505 44.6511 46.0778C45.3882 46.9686 46.4516 45.745 46.6951 45.6278C47.8131 45.0926 48.2498 45.585 49.2336 45.4875C50.9908 45.3105 52.9006 45.2357 54.8133 45.2151C58.163 45.178 61.5742 45.3016 64.3059 45.3028C65.111 45.3048 65.8389 45.2926 66.895 45.3067C70.8987 45.3904 75.6306 45.2367 80.4806 44.894C80.8466 44.8665 80.4366 44.1431 80.7542 44.1099C81.7405 44.0152 82.7235 43.9528 83.7102 43.9081C86.7812 43.7701 89.8102 43.7966 92.8615 43.535C93.192 43.5081 92.6918 42.8185 93.2223 42.7516C94.308 42.6096 95.6884 42.6051 96.7949 42.7967C97.3345 42.8889 96.6336 43.5157 97.1763 43.596C98.4398 43.7846 99.7872 43.7946 101.073 43.6431C101.619 43.5772 100.77 42.8809 101.484 42.8513C105.103 42.6894 108.687 42.5036 112.27 42.7298C113.496 42.8056 114.709 42.9279 115.94 43.1117C116.268 43.1617 116.629 44.6136 117.321 44.3003C117.355 43.8914 117.33 43.4135 117.333 42.978C120.963 42.6764 124.813 42.5752 128.535 42.5801C131.902 42.5787 135.25 42.6234 138.625 42.5739C138.924 42.5695 138.388 41.8061 138.966 41.7935C142.322 41.7197 145.576 41.4266 149.024 42.1199C149.363 42.1877 149.225 43.5576 150.22 43.3284C150.397 43.2866 151.906 43.0704 152.285 42.7654C152.338 42.7195 152.046 42.0879 152.536 42.0585C154.813 41.93 157.195 41.9589 159.512 42.151C160.076 42.1967 160.621 42.2519 161.167 42.3164C161.628 42.3716 161.153 43.0602 161.479 43.1054C163.791 43.4218 166.293 42.8602 168.526 43.4529C170.022 43.8539 169.479 45.0335 170.277 46.1844C170.39 46.3464 171.306 46.3701 171.354 47.0428C171.476 48.7336 171.039 50.5856 171.22 52.3877C171.256 52.7756 172.472 52.3574 171.752 53.2956C171.7 53.3582 170.83 53.6703 170.618 53.9896C170.472 54.2102 170.74 54.893 170.44 55.1759C170.14 55.4586 169.806 54.8871 169.308 55.2223C168.811 55.562 169.034 56.337 168.037 56.4408ZM12.5188 37.1045C13.57 37.0067 12.0241 35.1759 11.7528 36.2224C11.7422 36.2748 12.4658 37.1108 12.5188 37.1045ZM44.7746 74.9626C45.0729 76.4297 46.5573 75.5644 46.3797 74.4596C46.1995 73.3561 44.6786 74.5144 44.7746 74.9626ZM35.1546 69.5988C35.7245 70.9728 37.7462 68.2411 36.2773 68.0934C36.1931 68.0842 35.1216 69.519 35.1546 69.5988ZM166.633 46.5517C166.648 46.5831 167.304 46.6049 167.32 46.5733C167.66 45.8085 166.342 45.7655 166.633 46.5517ZM25.7583 64.1325C25.8008 64.7303 27.0122 64.9453 26.9554 64.2029C26.9091 63.6061 25.7053 63.39 25.7583 64.1325ZM48.9484 14.9455C48.9807 14.9654 49.3666 14.6964 49.2329 14.5452C48.8011 14.0595 48.4076 14.6106 48.9484 14.9455ZM10.802 53.0448C11.0296 53.1715 11.2627 53.3176 11.4928 53.5053C11.501 53.5098 11.5259 53.5225 11.5338 53.5275C13.1928 55.3048 12.5535 57.6606 10.673 55.937C10.2909 55.5983 12.0843 55.843 11.6992 55.2579C11.4727 54.9186 11.1436 54.7774 10.8207 54.7487L10.8578 54.7689C10.1522 54.7783 9.03099 54.9499 8.61198 53.8804C8.52776 53.6351 10.7213 53.0274 10.8078 53.0432C10.8059 53.0438 10.8039 53.0443 10.802 53.0448ZM14.8415 38.8621C14.8762 38.8721 15.3659 38.4535 15.3589 38.4179C15.0997 37.6196 14.0961 38.4774 14.8415 38.8621ZM50.9147 15.0962C50.844 15.0715 49.6984 16.0486 49.706 16.1245C49.97 17.5739 52.2986 15.5932 50.9147 15.0962ZM24.9684 68.7169C25.4315 68.6103 25.8364 68.6339 26.1321 68.7962C26.5753 69.0523 26.7934 69.4921 26.7278 70.1036C26.4369 69.8391 26.127 69.5827 25.7741 69.3259C25.5039 69.1269 25.2334 68.9262 24.9684 68.7169Z" fill="#0C5B97"/>
</svg>
